%TF.GenerationSoftware,Altium Limited,Altium Designer,26.7.1 (11)*%
G04 Layer_Color=0*
G04 Board_Origin=0|0*
%FSLAX45Y45*%
%MOMM*%
%TF.SameCoordinates,06090C51-49DB-498D-9410-9DCDE6E54C52*%
%TF.FilePolarity,Positive*%
%TF.FileFunction,Plated,1,4,PTH,Drill*%
%TF.Part,Single*%
G01*
G75*
%TA.AperFunction,OtherDrill,Pad Free-4 (109.169mm,56.82mm)*%
%ADD64C,2.00000*%
%TA.AperFunction,OtherDrill,Pad Free-3 (78.588mm,56.718mm)*%
%ADD65C,2.00000*%
%TA.AperFunction,OtherDrill,Pad Free-TH (77.749mm,58.953mm)*%
%ADD66C,1.15200*%
%TA.AperFunction,OtherDrill,Pad Free-2 (109.093mm,88.443mm)*%
%ADD67C,2.00000*%
%TA.AperFunction,OtherDrill,Pad Free-TH (109.906mm,86.131mm)*%
%ADD68C,1.15200*%
%TA.AperFunction,OtherDrill,Pad Free-1 (78.511mm,88.621mm)*%
%ADD69C,2.00000*%
%TA.AperFunction,ViaDrill,NotFilled*%
%ADD70C,0.40000*%
%ADD71C,0.30000*%
%ADD72C,0.50000*%
%ADD73C,0.20000*%
%ADD74C,0.25000*%
D64*
X10916920Y5681980D02*
D03*
D65*
X7858760Y5671820D02*
D03*
D66*
X7774940Y5895340D02*
D03*
D67*
X10909300Y8844280D02*
D03*
D68*
X10990580Y8613140D02*
D03*
D69*
X7851140Y8862060D02*
D03*
D70*
X10800006Y8400005D02*
D03*
X10900006Y8200004D02*
D03*
X10800006Y8000004D02*
D03*
X10900006Y7000004D02*
D03*
X10800006Y6800004D02*
D03*
X10900006Y6600004D02*
D03*
X10700006Y8600005D02*
D03*
Y8200004D02*
D03*
X10600006Y8000004D02*
D03*
Y7200004D02*
D03*
X10700006Y7000004D02*
D03*
X10600006Y6800004D02*
D03*
X10700006Y6600004D02*
D03*
X10400006Y8800005D02*
D03*
Y8400005D02*
D03*
Y8000004D02*
D03*
X10500006Y7800004D02*
D03*
X10400006Y6800004D02*
D03*
X10300006Y7800004D02*
D03*
X10000005Y8000004D02*
D03*
X10100005Y7400004D02*
D03*
X10000005Y7200004D02*
D03*
X9900005Y7800004D02*
D03*
Y7400004D02*
D03*
X9800005Y7200004D02*
D03*
X9900005Y7000004D02*
D03*
X9800005Y6800004D02*
D03*
X9900005Y6200003D02*
D03*
X9800005Y6000003D02*
D03*
X9700005Y8200004D02*
D03*
Y7400004D02*
D03*
Y7000004D02*
D03*
X9600005Y6800004D02*
D03*
X9700005Y6600004D02*
D03*
X9600005Y6400003D02*
D03*
X9700005Y6200003D02*
D03*
X9600005Y6000003D02*
D03*
X9400005Y8800005D02*
D03*
X9500005Y8600005D02*
D03*
X9400005Y8400005D02*
D03*
X9500005Y7400004D02*
D03*
Y6600004D02*
D03*
Y6200003D02*
D03*
X9300005Y8600005D02*
D03*
Y8200004D02*
D03*
X9200005Y6400003D02*
D03*
Y6000003D02*
D03*
X9000005Y8800005D02*
D03*
X9100005Y6600004D02*
D03*
X9000005Y6400003D02*
D03*
X9100005Y6200003D02*
D03*
X8800005Y8800005D02*
D03*
X8900005Y6600004D02*
D03*
Y5800003D02*
D03*
X8600005Y8800005D02*
D03*
Y6000003D02*
D03*
X8700005Y5800003D02*
D03*
X8400005Y6000003D02*
D03*
X8500005Y5800003D02*
D03*
X8200004Y8800005D02*
D03*
X8300004Y6600004D02*
D03*
X8000004Y7600004D02*
D03*
Y6800004D02*
D03*
Y6400003D02*
D03*
X8100004Y6200003D02*
D03*
X7900004Y7400004D02*
D03*
X7800004Y6400003D02*
D03*
X7900004Y6200003D02*
D03*
X8089900Y7734300D02*
D03*
D71*
X10307017Y6379500D02*
D03*
X10492740Y6245860D02*
D03*
X10600000Y6200000D02*
D03*
X10875000Y6350000D02*
D03*
X10425000Y6914128D02*
D03*
X10248900Y6911214D02*
D03*
X10200640Y6670040D02*
D03*
X10203682Y6564046D02*
D03*
X8343900Y7264400D02*
D03*
X10022840Y8694420D02*
D03*
X9639300Y8869680D02*
D03*
X9916160Y8724900D02*
D03*
X8605520Y8041640D02*
D03*
X8191500Y7627620D02*
D03*
X9550400Y7780020D02*
D03*
X10835000Y7698740D02*
D03*
X10574020Y7696200D02*
D03*
X9507220Y6995160D02*
D03*
X9276080Y6845300D02*
D03*
X8999220Y6837680D02*
D03*
X8605520Y8255000D02*
D03*
X8760460Y8252460D02*
D03*
X7815580Y8577580D02*
D03*
X8056880Y8105140D02*
D03*
X7820660Y8374380D02*
D03*
X8864600Y6037580D02*
D03*
X7792720Y7274560D02*
D03*
X7787640Y7104380D02*
D03*
X8122920Y6786880D02*
D03*
X8303260Y8125460D02*
D03*
X9075000Y8525000D02*
D03*
X8700000D02*
D03*
D72*
X10104120Y7909560D02*
D03*
X9611360Y7912100D02*
D03*
D73*
X9195000Y7670000D02*
D03*
X9085000Y7560000D02*
D03*
X8865000Y7670000D02*
D03*
X8975000D02*
D03*
X9085000D02*
D03*
X8975000Y7560000D02*
D03*
X8865000D02*
D03*
X9195000D02*
D03*
Y7450000D02*
D03*
X9085000D02*
D03*
Y7340000D02*
D03*
X9195000D02*
D03*
Y7230000D02*
D03*
X9085000D02*
D03*
X8975000Y7450000D02*
D03*
X8865000Y7340000D02*
D03*
Y7450000D02*
D03*
X8975000Y7340000D02*
D03*
Y7230000D02*
D03*
X8865000D02*
D03*
X8307500Y8555000D02*
D03*
X8197500Y8445000D02*
D03*
X8307500D02*
D03*
X8197500Y8555000D02*
D03*
X8755000Y7670000D02*
D03*
Y7450000D02*
D03*
Y7340000D02*
D03*
Y7560000D02*
D03*
Y7230000D02*
D03*
D74*
X8325000Y7375000D02*
D03*
%TF.MD5,30a47e05a9e138a3bdbc9fdb2e4a6d3d*%
M02*
