%TF.GenerationSoftware,Altium Limited,Altium Designer,26.7.1 (11)*%
G04 Layer_Color=8421504*
G04 Board_Origin=0|0*
%FSLAX45Y45*%
%MOMM*%
%TF.SameCoordinates,06090C51-49DB-498D-9410-9DCDE6E54C52*%
%TF.FilePolarity,Positive*%
%TF.FileFunction,Paste,Top*%
%TF.Part,Single*%
G01*
G75*
%TA.AperFunction,SMDPad,CuDef*%
G04:AMPARAMS|DCode=19|XSize=0.6mm|YSize=0.7mm|CornerRadius=0.075mm|HoleSize=0mm|Usage=FLASHONLY|Rotation=0.000|XOffset=0mm|YOffset=0mm|HoleType=Round|Shape=RoundedRectangle|*
%AMROUNDEDRECTD19*
21,1,0.60000,0.55000,0,0,0.0*
21,1,0.45000,0.70000,0,0,0.0*
1,1,0.15000,0.22500,-0.27500*
1,1,0.15000,-0.22500,-0.27500*
1,1,0.15000,-0.22500,0.27500*
1,1,0.15000,0.22500,0.27500*
%
%ADD19ROUNDEDRECTD19*%
%TA.AperFunction,ConnectorPad*%
%ADD20R,1.38000X0.45000*%
%TA.AperFunction,SMDPad,CuDef*%
G04:AMPARAMS|DCode=22|XSize=0.6mm|YSize=0.7mm|CornerRadius=0.075mm|HoleSize=0mm|Usage=FLASHONLY|Rotation=90.000|XOffset=0mm|YOffset=0mm|HoleType=Round|Shape=RoundedRectangle|*
%AMROUNDEDRECTD22*
21,1,0.60000,0.55000,0,0,90.0*
21,1,0.45000,0.70000,0,0,90.0*
1,1,0.15000,0.27500,0.22500*
1,1,0.15000,0.27500,-0.22500*
1,1,0.15000,-0.27500,-0.22500*
1,1,0.15000,-0.27500,0.22500*
%
%ADD22ROUNDEDRECTD22*%
%ADD23O,0.80000X0.25000*%
G04:AMPARAMS|DCode=24|XSize=0.8mm|YSize=1mm|CornerRadius=0.1mm|HoleSize=0mm|Usage=FLASHONLY|Rotation=90.000|XOffset=0mm|YOffset=0mm|HoleType=Round|Shape=RoundedRectangle|*
%AMROUNDEDRECTD24*
21,1,0.80000,0.80000,0,0,90.0*
21,1,0.60000,1.00000,0,0,90.0*
1,1,0.20000,0.40000,0.30000*
1,1,0.20000,0.40000,-0.30000*
1,1,0.20000,-0.40000,-0.30000*
1,1,0.20000,-0.40000,0.30000*
%
%ADD24ROUNDEDRECTD24*%
G04:AMPARAMS|DCode=25|XSize=1.4mm|YSize=1.7mm|CornerRadius=0.175mm|HoleSize=0mm|Usage=FLASHONLY|Rotation=180.000|XOffset=0mm|YOffset=0mm|HoleType=Round|Shape=RoundedRectangle|*
%AMROUNDEDRECTD25*
21,1,1.40000,1.35000,0,0,180.0*
21,1,1.05000,1.70000,0,0,180.0*
1,1,0.35000,-0.52500,0.67500*
1,1,0.35000,0.52500,0.67500*
1,1,0.35000,0.52500,-0.67500*
1,1,0.35000,-0.52500,-0.67500*
%
%ADD25ROUNDEDRECTD25*%
%ADD26R,0.87213X1.00429*%
G04:AMPARAMS|DCode=27|XSize=1.4mm|YSize=1.7mm|CornerRadius=0.175mm|HoleSize=0mm|Usage=FLASHONLY|Rotation=270.000|XOffset=0mm|YOffset=0mm|HoleType=Round|Shape=RoundedRectangle|*
%AMROUNDEDRECTD27*
21,1,1.40000,1.35000,0,0,270.0*
21,1,1.05000,1.70000,0,0,270.0*
1,1,0.35000,-0.67500,-0.52500*
1,1,0.35000,-0.67500,0.52500*
1,1,0.35000,0.67500,0.52500*
1,1,0.35000,0.67500,-0.52500*
%
%ADD27ROUNDEDRECTD27*%
%ADD28O,0.25000X0.80000*%
G04:AMPARAMS|DCode=29|XSize=0.8mm|YSize=1mm|CornerRadius=0.1mm|HoleSize=0mm|Usage=FLASHONLY|Rotation=0.000|XOffset=0mm|YOffset=0mm|HoleType=Round|Shape=RoundedRectangle|*
%AMROUNDEDRECTD29*
21,1,0.80000,0.80000,0,0,0.0*
21,1,0.60000,1.00000,0,0,0.0*
1,1,0.20000,0.30000,-0.40000*
1,1,0.20000,-0.30000,-0.40000*
1,1,0.20000,-0.30000,0.40000*
1,1,0.20000,0.30000,0.40000*
%
%ADD29ROUNDEDRECTD29*%
%ADD30R,0.35000X0.80000*%
%ADD31R,2.60000X2.70000*%
%ADD32R,0.85000X0.35000*%
%ADD33R,5.60000X5.60000*%
%ADD34R,0.65000X1.70000*%
G04:AMPARAMS|DCode=35|XSize=1.3mm|YSize=1.1mm|CornerRadius=0.055mm|HoleSize=0mm|Usage=FLASHONLY|Rotation=0.000|XOffset=0mm|YOffset=0mm|HoleType=Round|Shape=RoundedRectangle|*
%AMROUNDEDRECTD35*
21,1,1.30000,0.99000,0,0,0.0*
21,1,1.19000,1.10000,0,0,0.0*
1,1,0.11000,0.59500,-0.49500*
1,1,0.11000,-0.59500,-0.49500*
1,1,0.11000,-0.59500,0.49500*
1,1,0.11000,0.59500,0.49500*
%
%ADD35ROUNDEDRECTD35*%
%TA.AperFunction,ConnectorPad*%
%ADD36R,1.30000X1.65000*%
%ADD37R,1.90000X1.80000*%
%ADD38R,1.90000X1.00000*%
%ADD39R,1.55000X1.42500*%
%TA.AperFunction,SMDPad,CuDef*%
G04:AMPARAMS|DCode=40|XSize=1.00429mm|YSize=0.87213mm|CornerRadius=0.43606mm|HoleSize=0mm|Usage=FLASHONLY|Rotation=270.000|XOffset=0mm|YOffset=0mm|HoleType=Round|Shape=RoundedRectangle|*
%AMROUNDEDRECTD40*
21,1,1.00429,0.00000,0,0,270.0*
21,1,0.13216,0.87213,0,0,270.0*
1,1,0.87213,0.00000,-0.06608*
1,1,0.87213,0.00000,0.06608*
1,1,0.87213,0.00000,0.06608*
1,1,0.87213,0.00000,-0.06608*
%
%ADD40ROUNDEDRECTD40*%
G04:AMPARAMS|DCode=41|XSize=1.00429mm|YSize=3.18213mm|CornerRadius=0.43687mm|HoleSize=0mm|Usage=FLASHONLY|Rotation=270.000|XOffset=0mm|YOffset=0mm|HoleType=Round|Shape=RoundedRectangle|*
%AMROUNDEDRECTD41*
21,1,1.00429,2.30840,0,0,270.0*
21,1,0.13056,3.18213,0,0,270.0*
1,1,0.87373,-1.15420,-0.06528*
1,1,0.87373,-1.15420,0.06528*
1,1,0.87373,1.15420,0.06528*
1,1,0.87373,1.15420,-0.06528*
%
%ADD41ROUNDEDRECTD41*%
%ADD42R,1.00000X2.90000*%
D19*
X9875000Y8825000D02*
D03*
X9775000D02*
D03*
X9500000Y7100000D02*
D03*
X9275000Y6950000D02*
D03*
X8775000Y7925000D02*
D03*
X8050000Y8025000D02*
D03*
X8225000Y7250000D02*
D03*
X7875000Y7275000D02*
D03*
X10025000Y8825000D02*
D03*
X10125000D02*
D03*
X9125000Y8375000D02*
D03*
X8825000Y8375000D02*
D03*
X8675000Y7925000D02*
D03*
X9375000Y6950000D02*
D03*
X8150000Y8025000D02*
D03*
X8225000Y7375000D02*
D03*
X8125000D02*
D03*
Y7250000D02*
D03*
X7975000Y7275000D02*
D03*
X9025000Y8375000D02*
D03*
X9585600Y7228900D02*
D03*
X9485600D02*
D03*
X8925000Y8375000D02*
D03*
X9600000Y7100000D02*
D03*
D20*
X10719000Y7705000D02*
D03*
Y7510000D02*
D03*
Y7575000D02*
D03*
Y7445000D02*
D03*
Y7640000D02*
D03*
D22*
X9450000Y7675000D02*
D03*
X10875000Y6350000D02*
D03*
X8600000Y8325000D02*
D03*
X8850000Y8250000D02*
D03*
X7900000Y8575000D02*
D03*
Y8375000D02*
D03*
X8475000Y7625000D02*
D03*
Y7325000D02*
D03*
X9450000Y7775000D02*
D03*
X10875000Y5975000D02*
D03*
X7900000Y8675000D02*
D03*
X8475000Y7225000D02*
D03*
Y7725000D02*
D03*
X10875000Y6250000D02*
D03*
X10875000Y6075000D02*
D03*
X7900000Y8475000D02*
D03*
X8600000Y8425000D02*
D03*
X8850000Y8150000D02*
D03*
D23*
X9315000Y7675000D02*
D03*
X8635000Y7375000D02*
D03*
Y7425000D02*
D03*
X9315000Y7525000D02*
D03*
Y7575000D02*
D03*
Y7625000D02*
D03*
Y7725000D02*
D03*
X8635000D02*
D03*
Y7325000D02*
D03*
Y7475000D02*
D03*
X9315000D02*
D03*
Y7425000D02*
D03*
Y7375000D02*
D03*
Y7325000D02*
D03*
Y7275000D02*
D03*
Y7225000D02*
D03*
Y7175000D02*
D03*
X8635000D02*
D03*
Y7225000D02*
D03*
Y7275000D02*
D03*
Y7525000D02*
D03*
Y7575000D02*
D03*
Y7625000D02*
D03*
Y7675000D02*
D03*
D24*
X10425000Y6950000D02*
D03*
X10250000D02*
D03*
X8350000Y7600000D02*
D03*
X10425000Y7100000D02*
D03*
X8350000Y7750000D02*
D03*
X10250000Y7100000D02*
D03*
D25*
X10203600Y6600000D02*
D03*
X9975000D02*
D03*
D26*
X10304000Y6379500D02*
D03*
D27*
X10600000Y6200000D02*
D03*
Y5971400D02*
D03*
D28*
X9200000Y7110000D02*
D03*
X8750000Y7790000D02*
D03*
X8700000D02*
D03*
X9250000Y7110000D02*
D03*
X8800000Y7790000D02*
D03*
X8850000D02*
D03*
X8900000D02*
D03*
X8950000D02*
D03*
X9000000D02*
D03*
X9050000D02*
D03*
X9100000D02*
D03*
X9150000D02*
D03*
X9200000D02*
D03*
X9250000D02*
D03*
X9150000Y7110000D02*
D03*
X9100000D02*
D03*
X9050000D02*
D03*
X9000000D02*
D03*
X8950000D02*
D03*
X8900000D02*
D03*
X8850000D02*
D03*
X8800000D02*
D03*
X8750000D02*
D03*
X8700000D02*
D03*
D29*
X9000000Y6950000D02*
D03*
X10425000Y7325000D02*
D03*
X10275000D02*
D03*
X9150000Y6950000D02*
D03*
D30*
X8377500Y8700000D02*
D03*
Y8300000D02*
D03*
X8127500D02*
D03*
X8177500D02*
D03*
X8227500D02*
D03*
X8277500D02*
D03*
X8327500D02*
D03*
X8127500Y8700000D02*
D03*
X8177500D02*
D03*
X8227500D02*
D03*
X8277500D02*
D03*
X8327500D02*
D03*
D31*
X8252500Y8500000D02*
D03*
D32*
X8055000Y8525000D02*
D03*
Y8425000D02*
D03*
Y8575000D02*
D03*
X8450000Y8375000D02*
D03*
Y8425000D02*
D03*
Y8475000D02*
D03*
Y8525000D02*
D03*
Y8575000D02*
D03*
Y8625000D02*
D03*
X8055000Y8375000D02*
D03*
Y8475000D02*
D03*
Y8625000D02*
D03*
D33*
X8975000Y7450000D02*
D03*
D34*
X8862500Y6215000D02*
D03*
X8237500D02*
D03*
X8362500D02*
D03*
X8612500D02*
D03*
X8737500D02*
D03*
X8487500D02*
D03*
D35*
X8125000Y6910000D02*
D03*
X7895000Y7100000D02*
D03*
X8125000D02*
D03*
X7895000Y6910000D02*
D03*
D36*
X10985000Y7237500D02*
D03*
Y7912500D02*
D03*
D37*
Y7460000D02*
D03*
D38*
Y7730000D02*
D03*
D39*
X10727500Y7326250D02*
D03*
Y7823750D02*
D03*
D40*
X10075000Y6379500D02*
D03*
X9846000D02*
D03*
D41*
X10075000Y5720500D02*
D03*
D42*
X8052500Y5935000D02*
D03*
X9047500D02*
D03*
%TF.MD5,46315437c762ad204a69cd2dbfb790ac*%
M02*
