%TF.GenerationSoftware,Altium Limited,Altium Designer,26.7.1 (11)*%
G04 Layer_Color=16711935*
G04 Board_Origin=0|0*
%FSLAX45Y45*%
%MOMM*%
%TF.SameCoordinates,06090C51-49DB-498D-9410-9DCDE6E54C52*%
%TF.FilePolarity,Positive*%
%TF.FileFunction,Other,Top_Assembly*%
%TF.Part,Single*%
G01*
G75*
%TA.AperFunction,NonConductor*%
%ADD54C,0.20000*%
G36*
X10900392Y7642584D02*
X10850373D01*
X10850465Y7642492D01*
X10850835Y7642029D01*
X10851390Y7641475D01*
X10852037Y7640550D01*
X10852869Y7639533D01*
X10853794Y7638239D01*
X10854811Y7636759D01*
X10855828Y7635095D01*
Y7635003D01*
X10855920Y7634910D01*
X10856290Y7634356D01*
X10856752Y7633431D01*
X10857307Y7632322D01*
X10857954Y7631027D01*
X10858602Y7629640D01*
X10859249Y7628253D01*
X10859804Y7626867D01*
X10852222D01*
Y7626959D01*
X10852037Y7627144D01*
X10851945Y7627514D01*
X10851667Y7627976D01*
X10851390Y7628531D01*
X10851020Y7629178D01*
X10850096Y7630750D01*
X10849079Y7632599D01*
X10847784Y7634448D01*
X10846305Y7636390D01*
X10844733Y7638331D01*
X10844641Y7638424D01*
X10844548Y7638516D01*
X10844271Y7638793D01*
X10843994Y7639163D01*
X10843069Y7639995D01*
X10841960Y7641105D01*
X10840665Y7642214D01*
X10839186Y7643416D01*
X10837707Y7644433D01*
X10836135Y7645358D01*
Y7650443D01*
X10900392D01*
Y7642584D01*
D02*
G37*
G36*
X10882085Y7610132D02*
X10882825D01*
X10884582Y7609947D01*
X10886616Y7609762D01*
X10888742Y7609392D01*
X10890684Y7608838D01*
X10892533Y7608191D01*
X10892625D01*
X10892718Y7608098D01*
X10893273Y7607821D01*
X10894012Y7607358D01*
X10895029Y7606711D01*
X10896046Y7605787D01*
X10897156Y7604770D01*
X10898265Y7603475D01*
X10899190Y7601996D01*
X10899282Y7601811D01*
X10899560Y7601256D01*
X10899929Y7600424D01*
X10900299Y7599222D01*
X10900762Y7597743D01*
X10901131Y7596079D01*
X10901409Y7594230D01*
X10901501Y7592196D01*
Y7591364D01*
X10901409Y7590809D01*
X10901316Y7590069D01*
X10901224Y7589329D01*
X10900854Y7587388D01*
X10900299Y7585354D01*
X10899467Y7583227D01*
X10898912Y7582118D01*
X10898265Y7581101D01*
X10897526Y7580176D01*
X10896693Y7579252D01*
X10896601Y7579159D01*
X10896509Y7579067D01*
X10896139Y7578882D01*
X10895769Y7578605D01*
X10895307Y7578235D01*
X10894659Y7577865D01*
X10893920Y7577495D01*
X10893088Y7577033D01*
X10892163Y7576663D01*
X10891054Y7576293D01*
X10889944Y7575923D01*
X10888650Y7575554D01*
X10887263Y7575369D01*
X10885691Y7575091D01*
X10884119Y7574999D01*
X10882363D01*
X10881253Y7582673D01*
X10881346D01*
X10881531D01*
X10881901D01*
X10882455Y7582765D01*
X10883010Y7582858D01*
X10883657D01*
X10885229Y7583135D01*
X10886893Y7583412D01*
X10888557Y7583967D01*
X10890037Y7584522D01*
X10890684Y7584892D01*
X10891239Y7585354D01*
X10891331Y7585446D01*
X10891608Y7585816D01*
X10892071Y7586371D01*
X10892533Y7587111D01*
X10893088Y7588128D01*
X10893458Y7589237D01*
X10893827Y7590624D01*
X10893920Y7592103D01*
Y7592658D01*
X10893827Y7593213D01*
X10893735Y7594045D01*
X10893550Y7594877D01*
X10893365Y7595801D01*
X10892995Y7596726D01*
X10892533Y7597651D01*
X10892440Y7597743D01*
X10892256Y7598020D01*
X10891886Y7598390D01*
X10891516Y7598945D01*
X10890869Y7599407D01*
X10890222Y7599962D01*
X10889482Y7600424D01*
X10888557Y7600794D01*
X10888465D01*
X10888095Y7600979D01*
X10887448Y7601071D01*
X10886616Y7601256D01*
X10885506Y7601441D01*
X10884119Y7601534D01*
X10882455Y7601719D01*
X10880514D01*
X10836412D01*
Y7610225D01*
X10880051D01*
X10880144D01*
X10880421D01*
X10880791D01*
X10881346D01*
X10882085Y7610132D01*
D02*
G37*
G36*
X10140087Y6041495D02*
X10103105D01*
X10103013D01*
X10102735D01*
X10102273D01*
X10101718D01*
X10101071Y6041403D01*
X10100239D01*
X10098482Y6041310D01*
X10096448Y6041125D01*
X10094414Y6040848D01*
X10092473Y6040478D01*
X10091640Y6040293D01*
X10090808Y6040016D01*
X10090623Y6039923D01*
X10090161Y6039738D01*
X10089514Y6039276D01*
X10088589Y6038721D01*
X10087665Y6038074D01*
X10086648Y6037150D01*
X10085631Y6036040D01*
X10084799Y6034746D01*
X10084706Y6034561D01*
X10084429Y6034099D01*
X10084152Y6033267D01*
X10083782Y6032157D01*
X10083319Y6030863D01*
X10083042Y6029199D01*
X10082765Y6027442D01*
X10082672Y6025500D01*
Y6024576D01*
X10082765Y6024021D01*
Y6023189D01*
X10082857Y6022357D01*
X10083227Y6020323D01*
X10083689Y6018104D01*
X10084429Y6015977D01*
X10085446Y6013943D01*
X10086093Y6013019D01*
X10086833Y6012187D01*
X10086925Y6012094D01*
X10087018Y6012002D01*
X10087295Y6011817D01*
X10087665Y6011539D01*
X10088220Y6011262D01*
X10088774Y6010892D01*
X10089606Y6010522D01*
X10090439Y6010153D01*
X10091456Y6009783D01*
X10092657Y6009505D01*
X10094044Y6009136D01*
X10095524Y6008858D01*
X10097188Y6008581D01*
X10098944Y6008396D01*
X10100979Y6008211D01*
X10103105D01*
X10140087D01*
Y5999705D01*
X10103105D01*
X10103013D01*
X10102643D01*
X10102180D01*
X10101533D01*
X10100701Y5999797D01*
X10099777D01*
X10098667Y5999890D01*
X10097558Y5999982D01*
X10095061Y6000260D01*
X10092473Y6000630D01*
X10089976Y6001184D01*
X10088774Y6001554D01*
X10087665Y6001924D01*
X10087572D01*
X10087387Y6002016D01*
X10087110Y6002201D01*
X10086740Y6002386D01*
X10085723Y6002941D01*
X10084429Y6003773D01*
X10082950Y6004883D01*
X10081470Y6006177D01*
X10079899Y6007841D01*
X10078512Y6009875D01*
Y6009968D01*
X10078327Y6010153D01*
X10078234Y6010430D01*
X10077957Y6010892D01*
X10077680Y6011447D01*
X10077402Y6012187D01*
X10077125Y6012926D01*
X10076755Y6013851D01*
X10076385Y6014868D01*
X10076108Y6015977D01*
X10075830Y6017179D01*
X10075553Y6018566D01*
X10075368Y6019953D01*
X10075183Y6021432D01*
X10074998Y6024761D01*
Y6025593D01*
X10075091Y6026240D01*
Y6026980D01*
X10075183Y6027904D01*
X10075276Y6028921D01*
X10075368Y6029938D01*
X10075738Y6032250D01*
X10076293Y6034746D01*
X10077032Y6037150D01*
X10078049Y6039461D01*
Y6039554D01*
X10078234Y6039738D01*
X10078419Y6040016D01*
X10078604Y6040386D01*
X10079344Y6041403D01*
X10080361Y6042605D01*
X10081655Y6043991D01*
X10083135Y6045286D01*
X10084984Y6046580D01*
X10087018Y6047597D01*
X10087110D01*
X10087295Y6047690D01*
X10087665Y6047782D01*
X10088127Y6047967D01*
X10088682Y6048152D01*
X10089422Y6048337D01*
X10090254Y6048614D01*
X10091271Y6048799D01*
X10092380Y6048984D01*
X10093582Y6049261D01*
X10094876Y6049446D01*
X10096263Y6049631D01*
X10097835Y6049816D01*
X10099499Y6049909D01*
X10101256Y6050001D01*
X10103105D01*
X10140087D01*
Y6041495D01*
D02*
G37*
G36*
X10124277Y5982693D02*
X10124462Y5982508D01*
X10124555Y5982138D01*
X10124832Y5981676D01*
X10125110Y5981121D01*
X10125479Y5980474D01*
X10126404Y5978902D01*
X10127421Y5977053D01*
X10128715Y5975204D01*
X10130195Y5973263D01*
X10131766Y5971321D01*
X10131859Y5971229D01*
X10131951Y5971136D01*
X10132229Y5970859D01*
X10132506Y5970489D01*
X10133431Y5969657D01*
X10134540Y5968547D01*
X10135834Y5967438D01*
X10137314Y5966236D01*
X10138793Y5965219D01*
X10140365Y5964294D01*
Y5959209D01*
X10076108D01*
Y5967068D01*
X10126127D01*
X10126034Y5967161D01*
X10125664Y5967623D01*
X10125110Y5968178D01*
X10124462Y5969102D01*
X10123630Y5970119D01*
X10122706Y5971414D01*
X10121689Y5972893D01*
X10120672Y5974557D01*
Y5974649D01*
X10120579Y5974742D01*
X10120209Y5975297D01*
X10119747Y5976221D01*
X10119192Y5977331D01*
X10118545Y5978625D01*
X10117898Y5980012D01*
X10117251Y5981399D01*
X10116696Y5982786D01*
X10124277D01*
Y5982693D01*
D02*
G37*
D54*
X10605000Y7145000D02*
Y8005000D01*
X11198000D01*
Y7145000D02*
Y8005000D01*
X10605000Y7145000D02*
X11198000D01*
X9739750Y6439715D02*
X10410250D01*
X9739750Y5660285D02*
Y6439715D01*
Y5660285D02*
X10410250D01*
Y6439715D01*
%TF.MD5,1179facf64efb0c4747b73d6b5514d41*%
M02*
