%TF.GenerationSoftware,Altium Limited,Altium Designer,26.7.1 (11)*%
G04 Layer_Color=16711935*
G04 Board_Origin=0|0*
%FSLAX45Y45*%
%MOMM*%
%TF.SameCoordinates,06090C51-49DB-498D-9410-9DCDE6E54C52*%
%TF.FilePolarity,Positive*%
%TF.FileFunction,Other,Mechanical_13*%
%TF.Part,Single*%
G01*
G75*
%TA.AperFunction,NonConductor*%
%ADD52C,0.25000*%
%ADD53C,0.25400*%
%ADD54C,0.20000*%
%ADD55C,0.17500*%
%ADD59C,0.10000*%
%ADD60C,0.15000*%
D52*
X8247500Y6250000D02*
G03*
X8247500Y6250000I-10000J0D01*
G01*
D53*
X7906180Y6910000D02*
G03*
X7906180Y6910000I-11180J0D01*
G01*
X10050392Y8462324D02*
X10101175D01*
X10075784D01*
Y8589283D01*
X10101175Y8614675D01*
X10126567D01*
X10151959Y8589283D01*
X9898041Y8614675D02*
X9999608D01*
X9898041Y8513108D01*
Y8487716D01*
X9923433Y8462324D01*
X9974216D01*
X9999608Y8487716D01*
D54*
X7962500Y5940000D02*
Y6340000D01*
X9137500D01*
Y5740000D02*
Y6340000D01*
X7962500Y5740000D02*
X9137500D01*
X7962500D02*
Y5940000D01*
D55*
X9710000Y8755000D02*
X9940000D01*
Y8895000D01*
X9710000D02*
X9940000D01*
X9710000Y8755000D02*
Y8895000D01*
X9520000Y7610000D02*
Y7840000D01*
X9380000D02*
X9520000D01*
X9380000Y7610000D02*
Y7840000D01*
Y7610000D02*
X9520000D01*
X8060000Y7305000D02*
Y7445000D01*
X8290000D01*
Y7305000D02*
Y7445000D01*
X8060000Y7305000D02*
X8290000D01*
X8290000Y7180000D02*
Y7320000D01*
X8060000Y7180000D02*
X8290000D01*
X8060000D02*
Y7320000D01*
X8290000D01*
X10805000Y6415000D02*
X10945000D01*
Y6185000D02*
Y6415000D01*
X10805000Y6185000D02*
X10945000D01*
X10805000D02*
Y6415000D01*
X10945000Y5910000D02*
Y6140000D01*
X10805000D02*
X10945000D01*
X10805000Y5910000D02*
Y6140000D01*
Y5910000D02*
X10945000D01*
X9873400Y6714300D02*
X10305200D01*
X9873400Y6485700D02*
Y6714300D01*
Y6485700D02*
X10305200D01*
Y6714300D01*
X10485700Y5869800D02*
Y6301600D01*
Y5869800D02*
X10714300D01*
Y6301600D01*
X10485700D02*
X10714300D01*
X7830000Y8510000D02*
X7970000D01*
X7830000D02*
Y8740000D01*
X7970000D01*
Y8510000D02*
Y8740000D01*
X7830000Y8310000D02*
X7970000D01*
X7830000D02*
Y8540000D01*
X7970000D01*
Y8310000D02*
Y8540000D01*
X7810000Y7205000D02*
Y7345000D01*
X8040000D01*
Y7205000D02*
Y7345000D01*
X7810000Y7205000D02*
X8040000D01*
X8840000Y7855000D02*
Y7995000D01*
X8610000Y7855000D02*
X8840000D01*
X8610000D02*
Y7995000D01*
X8840000D01*
X8960000Y8305000D02*
Y8445000D01*
X9190000D01*
Y8305000D02*
Y8445000D01*
X8960000Y8305000D02*
X9190000D01*
X9420600Y7158900D02*
Y7298900D01*
X9650600D01*
Y7158900D02*
Y7298900D01*
X9420600Y7158900D02*
X9650600D01*
X8530000Y8260000D02*
X8670000D01*
X8530000D02*
Y8490000D01*
X8670000D01*
Y8260000D02*
Y8490000D01*
X8432500Y7525000D02*
Y7825000D01*
X8267500D02*
X8432500D01*
X8267500Y7525000D02*
Y7825000D01*
Y7525000D02*
X8432500D01*
X9675000Y8348500D02*
X10375000D01*
X9675000D02*
Y8728500D01*
X10375000D01*
Y8348500D02*
Y8728500D01*
X7985000Y7955000D02*
Y8095000D01*
X8215000D01*
Y7955000D02*
Y8095000D01*
X7985000Y7955000D02*
X8215000D01*
X8405000Y7390000D02*
X8545000D01*
Y7160000D02*
Y7390000D01*
X8405000Y7160000D02*
X8545000D01*
X8405000D02*
Y7390000D01*
X9960000Y8755000D02*
Y8895000D01*
X10190000D01*
Y8755000D02*
Y8895000D01*
X9960000Y8755000D02*
X10190000D01*
X8990000Y8305000D02*
Y8445000D01*
X8760000Y8305000D02*
X8990000D01*
X8760000D02*
Y8445000D01*
X8990000D01*
X8780000Y8315000D02*
X8920000D01*
Y8085000D02*
Y8315000D01*
X8780000Y8085000D02*
X8920000D01*
X8780000D02*
Y8315000D01*
X7787500Y6850000D02*
Y7195255D01*
Y6850000D02*
X7822500Y6815000D01*
X8229745D01*
Y7195255D01*
X7787500D02*
X8057244D01*
X7962245D02*
X8229745D01*
X8925000Y6867500D02*
X9225000D01*
Y7032500D01*
X8925000D02*
X9225000D01*
X8925000Y6867500D02*
Y7032500D01*
X10500000Y7242500D02*
Y7407500D01*
X10200000Y7242500D02*
X10500000D01*
X10200000D02*
Y7407500D01*
X10500000D01*
X10332500Y6875000D02*
Y7175000D01*
X10167500D02*
X10332500D01*
X10167500Y6875000D02*
Y7175000D01*
Y6875000D02*
X10332500D01*
X10507500D02*
Y7175000D01*
X10342500D02*
X10507500D01*
X10342500Y6875000D02*
Y7175000D01*
Y6875000D02*
X10507500D01*
X8405000Y7560000D02*
X8545000D01*
X8405000D02*
Y7790000D01*
X8545000D01*
Y7560000D02*
Y7790000D01*
X9435000Y7030000D02*
Y7170000D01*
X9665000D01*
Y7030000D02*
Y7170000D01*
X9435000Y7030000D02*
X9665000D01*
X9210000Y6880000D02*
Y7020000D01*
X9440000D01*
Y6880000D02*
Y7020000D01*
X9210000Y6880000D02*
X9440000D01*
X8533339Y6124984D02*
X8500016D01*
X8516677D01*
Y6041678D01*
X8500016Y6025016D01*
X8483355D01*
X8466694Y6041678D01*
X8566661Y6108323D02*
X8583323Y6124984D01*
X8616645D01*
X8633306Y6108323D01*
Y6091661D01*
X8616645Y6075000D01*
X8599984D01*
X8616645D01*
X8633306Y6058339D01*
Y6041678D01*
X8616645Y6025016D01*
X8583323D01*
X8566661Y6041678D01*
D59*
X8760000Y7715000D02*
G03*
X8760000Y7715000I-50000J0D01*
G01*
X8052500Y8300000D02*
X8452500D01*
X8052500D02*
Y8700000D01*
X8452500D01*
Y8300000D02*
Y8700000D01*
X8620000Y7095000D02*
X9330000D01*
X8620000Y7805000D02*
X9330000D01*
Y7095000D02*
Y7805000D01*
X8620000Y7095000D02*
Y7805000D01*
X9378939Y7328900D02*
X9412262D01*
X9395600Y7345561D02*
Y7312239D01*
X10775000Y5868338D02*
Y5901661D01*
X10758338Y5884999D02*
X10791661D01*
D60*
X9766685Y8871022D02*
X9750024Y8887684D01*
X9716702D01*
X9700040Y8871022D01*
Y8804377D01*
X9716702Y8787716D01*
X9750024D01*
X9766685Y8804377D01*
X9800008Y8787716D02*
X9833331D01*
X9816669D01*
Y8887684D01*
X9800008Y8871022D01*
X9933298Y8787716D02*
Y8887684D01*
X9883314Y8837700D01*
X9949960D01*
X9403978Y7683347D02*
X9387316Y7666685D01*
Y7633363D01*
X9403978Y7616702D01*
X9470623D01*
X9487284Y7633363D01*
Y7666685D01*
X9470623Y7683347D01*
X9487284Y7716669D02*
Y7749992D01*
Y7733331D01*
X9387316D01*
X9403978Y7716669D01*
X9487284Y7799976D02*
Y7833298D01*
Y7816637D01*
X9387316D01*
X9403978Y7799976D01*
X8091693Y7325016D02*
Y7424984D01*
X8141677D01*
X8158339Y7408322D01*
Y7375000D01*
X8141677Y7358339D01*
X8091693D01*
X8125016D02*
X8158339Y7325016D01*
X8258306D02*
X8191661D01*
X8258306Y7391661D01*
Y7408322D01*
X8241645Y7424984D01*
X8208323D01*
X8191661Y7408322D01*
X8191662Y7203977D02*
X8208323Y7187316D01*
X8241645D01*
X8258307Y7203977D01*
Y7270622D01*
X8241645Y7287284D01*
X8208323D01*
X8191662Y7270622D01*
X8091694Y7187316D02*
X8125016Y7203977D01*
X8158339Y7237300D01*
Y7270622D01*
X8141677Y7287284D01*
X8108355D01*
X8091694Y7270622D01*
Y7253961D01*
X8108355Y7237300D01*
X8158339D01*
X10825016Y6366645D02*
X10924984D01*
Y6316661D01*
X10908323Y6300000D01*
X10875000D01*
X10858339Y6316661D01*
Y6366645D01*
Y6333323D02*
X10825016Y6300000D01*
Y6266677D02*
Y6233355D01*
Y6250016D01*
X10924984D01*
X10908323Y6266677D01*
X10812316Y5958354D02*
X10912283D01*
Y6008338D01*
X10895622Y6024999D01*
X10828977D01*
X10812316Y6008338D01*
Y5958354D01*
X10912283Y6058322D02*
Y6091645D01*
Y6074984D01*
X10812316D01*
X10828977Y6058322D01*
X10105961Y6566677D02*
X10122622Y6550016D01*
X10155944D01*
X10172606Y6566677D01*
Y6633322D01*
X10155944Y6649984D01*
X10122622D01*
X10105961Y6633322D01*
X10072638Y6566677D02*
X10055977Y6550016D01*
X10022654D01*
X10005993Y6566677D01*
Y6583339D01*
X10022654Y6600000D01*
X10039315D01*
X10022654D01*
X10005993Y6616661D01*
Y6633322D01*
X10022654Y6649984D01*
X10055977D01*
X10072638Y6633322D01*
X10633322Y6102361D02*
X10649984Y6119022D01*
Y6152345D01*
X10633322Y6169006D01*
X10566677D01*
X10550016Y6152345D01*
Y6119022D01*
X10566677Y6102361D01*
X10550016Y6019055D02*
X10649984D01*
X10600000Y6069038D01*
Y6002393D01*
X7853977Y8566685D02*
X7837316Y8550024D01*
Y8516702D01*
X7853977Y8500040D01*
X7920622D01*
X7937284Y8516702D01*
Y8550024D01*
X7920622Y8566685D01*
X7937284Y8600008D02*
Y8633331D01*
Y8616670D01*
X7837316D01*
X7853977Y8600008D01*
X7837316Y8683315D02*
Y8749960D01*
X7853977D01*
X7920622Y8683315D01*
X7937284D01*
X7853978Y8366685D02*
X7837316Y8350024D01*
Y8316702D01*
X7853978Y8300040D01*
X7920623D01*
X7937284Y8316702D01*
Y8350024D01*
X7920623Y8366685D01*
X7937284Y8400008D02*
Y8433331D01*
Y8416669D01*
X7837316D01*
X7853978Y8400008D01*
X7837316Y8549960D02*
X7853978Y8516637D01*
X7887300Y8483315D01*
X7920623D01*
X7937284Y8499976D01*
Y8533298D01*
X7920623Y8549960D01*
X7903962D01*
X7887300Y8533298D01*
Y8483315D01*
X7908339Y7321022D02*
X7891677Y7337684D01*
X7858355D01*
X7841693Y7321022D01*
Y7254377D01*
X7858355Y7237716D01*
X7891677D01*
X7908339Y7254377D01*
X8008306Y7337684D02*
X7941661D01*
Y7287700D01*
X7974984Y7304361D01*
X7991645D01*
X8008306Y7287700D01*
Y7254377D01*
X7991645Y7237716D01*
X7958323D01*
X7941661Y7254377D01*
X8783314Y7878977D02*
X8799975Y7862316D01*
X8833298D01*
X8849959Y7878977D01*
Y7945622D01*
X8833298Y7962284D01*
X8799975D01*
X8783314Y7945622D01*
X8749991Y7962284D02*
X8716669D01*
X8733330D01*
Y7862316D01*
X8749991Y7878977D01*
X8600040Y7962284D02*
X8666685D01*
X8600040Y7895639D01*
Y7878977D01*
X8616701Y7862316D01*
X8650024D01*
X8666685Y7878977D01*
X8991693Y8325016D02*
Y8424984D01*
X9041677D01*
X9058338Y8408322D01*
Y8375000D01*
X9041677Y8358338D01*
X8991693D01*
X9025016D02*
X9058338Y8325016D01*
X9091661Y8408322D02*
X9108323Y8424984D01*
X9141645D01*
X9158306Y8408322D01*
Y8391661D01*
X9141645Y8375000D01*
X9124984D01*
X9141645D01*
X9158306Y8358338D01*
Y8341677D01*
X9141645Y8325016D01*
X9108323D01*
X9091661Y8341677D01*
X9452294Y7291584D02*
Y7191616D01*
X9502278D01*
X9518939Y7208277D01*
Y7274922D01*
X9502278Y7291584D01*
X9452294D01*
X9618907Y7191616D02*
X9552262D01*
X9618907Y7258261D01*
Y7274922D01*
X9602245Y7291584D01*
X9568923D01*
X9552262Y7274922D01*
X8553977Y8316685D02*
X8537316Y8300024D01*
Y8266702D01*
X8553977Y8250040D01*
X8620622D01*
X8637283Y8266702D01*
Y8300024D01*
X8620622Y8316685D01*
X8637283Y8350008D02*
Y8383330D01*
Y8366669D01*
X8537316D01*
X8553977Y8350008D01*
Y8433314D02*
X8537316Y8449976D01*
Y8483298D01*
X8553977Y8499959D01*
X8570638D01*
X8587300Y8483298D01*
X8603961Y8499959D01*
X8620622D01*
X8637283Y8483298D01*
Y8449976D01*
X8620622Y8433314D01*
X8603961D01*
X8587300Y8449976D01*
X8570638Y8433314D01*
X8553977D01*
X8587300Y8449976D02*
Y8483298D01*
X8316677Y7658338D02*
X8300016Y7641677D01*
Y7608354D01*
X8316677Y7591693D01*
X8383322D01*
X8399984Y7608354D01*
Y7641677D01*
X8383322Y7658338D01*
X8300016Y7691661D02*
Y7758306D01*
X8316677D01*
X8383322Y7691661D01*
X8399984D01*
X8041685Y8071022D02*
X8025024Y8087684D01*
X7991702D01*
X7975040Y8071022D01*
Y8004377D01*
X7991702Y7987716D01*
X8025024D01*
X8041685Y8004377D01*
X8075008Y7987716D02*
X8108331D01*
X8091670D01*
Y8087684D01*
X8075008Y8071022D01*
X8224960Y8087684D02*
X8158315D01*
Y8037700D01*
X8191637Y8054361D01*
X8208299D01*
X8224960Y8037700D01*
Y8004377D01*
X8208299Y7987716D01*
X8174976D01*
X8158315Y8004377D01*
X8521023Y7291661D02*
X8537684Y7308322D01*
Y7341645D01*
X8521023Y7358306D01*
X8454378D01*
X8437716Y7341645D01*
Y7308322D01*
X8454378Y7291661D01*
Y7258338D02*
X8437716Y7241677D01*
Y7208354D01*
X8454378Y7191693D01*
X8521023D01*
X8537684Y7208354D01*
Y7241677D01*
X8521023Y7258338D01*
X8504361D01*
X8487700Y7241677D01*
Y7191693D01*
X9991694Y8775016D02*
Y8874984D01*
X10041677D01*
X10058339Y8858322D01*
Y8825000D01*
X10041677Y8808338D01*
X9991694D01*
X10025016D02*
X10058339Y8775016D01*
X10091661Y8874984D02*
X10158306D01*
Y8858322D01*
X10091661Y8791677D01*
Y8775016D01*
X8958306Y8424984D02*
Y8325016D01*
X8908322D01*
X8891661Y8341678D01*
Y8375000D01*
X8908322Y8391661D01*
X8958306D01*
X8924983D02*
X8891661Y8424984D01*
X8808354D02*
Y8325016D01*
X8858338Y8375000D01*
X8791693D01*
X8800016Y8283306D02*
X8899984D01*
Y8233322D01*
X8883323Y8216661D01*
X8850000D01*
X8833339Y8233322D01*
Y8283306D01*
Y8249984D02*
X8800016Y8216661D01*
X8899984Y8116693D02*
X8883323Y8150016D01*
X8850000Y8183338D01*
X8816678D01*
X8800016Y8166677D01*
Y8133354D01*
X8816678Y8116693D01*
X8833339D01*
X8850000Y8133354D01*
Y8183338D01*
X7943355Y7054984D02*
Y7038322D01*
X7976677Y7005000D01*
X8010000Y7038322D01*
Y7054984D01*
X7976677Y7005000D02*
Y6955016D01*
X8043323D02*
X8076645D01*
X8059984D01*
Y7054984D01*
X8043323Y7038322D01*
X9016685Y6983323D02*
X9000024Y6999984D01*
X8966702D01*
X8950040Y6983323D01*
Y6916678D01*
X8966702Y6900016D01*
X9000024D01*
X9016685Y6916678D01*
X9050008Y6900016D02*
X9083331D01*
X9066669D01*
Y6999984D01*
X9050008Y6983323D01*
X9133314D02*
X9149976Y6999984D01*
X9183298D01*
X9199960Y6983323D01*
Y6966661D01*
X9183298Y6950000D01*
X9166637D01*
X9183298D01*
X9199960Y6933339D01*
Y6916678D01*
X9183298Y6900016D01*
X9149976D01*
X9133314Y6916678D01*
X10399984Y7275016D02*
X10466629D01*
Y7325000D01*
X10433307D01*
X10466629D01*
Y7374984D01*
X10366661Y7275016D02*
Y7374984D01*
X10316677D01*
X10300016Y7358323D01*
Y7341661D01*
X10316677Y7325000D01*
X10366661D01*
X10316677D01*
X10300016Y7308339D01*
Y7291678D01*
X10316677Y7275016D01*
X10366661D01*
X10266693Y7374984D02*
X10233371D01*
X10250032D01*
Y7275016D01*
X10266693Y7291678D01*
X10216677Y7008338D02*
X10200016Y6991677D01*
Y6958355D01*
X10216677Y6941693D01*
X10283322D01*
X10299983Y6958355D01*
Y6991677D01*
X10283322Y7008338D01*
X10299983Y7108306D02*
Y7041661D01*
X10233338Y7108306D01*
X10216677D01*
X10200016Y7091645D01*
Y7058322D01*
X10216677Y7041661D01*
X10391677Y7025000D02*
X10375016Y7008339D01*
Y6975016D01*
X10391677Y6958355D01*
X10458322D01*
X10474984Y6975016D01*
Y7008339D01*
X10458322Y7025000D01*
X10474984Y7058323D02*
Y7091645D01*
Y7074984D01*
X10375016D01*
X10391677Y7058323D01*
X8428977Y7658338D02*
X8412316Y7641677D01*
Y7608354D01*
X8428977Y7591693D01*
X8495622D01*
X8512284Y7608354D01*
Y7641677D01*
X8495622Y7658338D01*
X8428977Y7691661D02*
X8412316Y7708322D01*
Y7741645D01*
X8428977Y7758306D01*
X8445639D01*
X8462300Y7741645D01*
X8478961Y7758306D01*
X8495622D01*
X8512284Y7741645D01*
Y7708322D01*
X8495622Y7691661D01*
X8478961D01*
X8462300Y7708322D01*
X8445639Y7691661D01*
X8428977D01*
X8462300Y7708322D02*
Y7741645D01*
X9466694Y7050016D02*
Y7149984D01*
X9516677D01*
X9533339Y7133322D01*
Y7100000D01*
X9516677Y7083338D01*
X9466694D01*
X9500016D02*
X9533339Y7050016D01*
X9633306Y7149984D02*
X9566661D01*
Y7100000D01*
X9599984Y7116661D01*
X9616645D01*
X9633306Y7100000D01*
Y7066677D01*
X9616645Y7050016D01*
X9583323D01*
X9566661Y7066677D01*
X9266685Y6996023D02*
X9250024Y7012684D01*
X9216702D01*
X9200040Y6996023D01*
Y6929378D01*
X9216702Y6912716D01*
X9250024D01*
X9266685Y6929378D01*
X9300008Y6912716D02*
X9333331D01*
X9316669D01*
Y7012684D01*
X9300008Y6996023D01*
X9383314D02*
X9399976Y7012684D01*
X9433298D01*
X9449960Y6996023D01*
Y6929378D01*
X9433298Y6912716D01*
X9399976D01*
X9383314Y6929378D01*
Y6996023D01*
%TF.MD5,c5a2a6b8eb2798c2be550abc52c44d7f*%
M02*
