%TF.GenerationSoftware,Altium Limited,Altium Designer,26.7.1 (11)*%
G04 Layer_Color=16711935*
G04 Board_Origin=0|0*
%FSLAX45Y45*%
%MOMM*%
%TF.SameCoordinates,06090C51-49DB-498D-9410-9DCDE6E54C52*%
%TF.FilePolarity,Negative*%
%TF.FileFunction,Soldermask,Bot*%
%TF.Part,Single*%
G01*
G75*
%TA.AperFunction,ViaPad*%
%ADD44C,2.00000*%
%ADD45C,1.52400*%
%TA.AperFunction,ComponentPad*%
%ADD46C,1.06700*%
%TA.AperFunction,ViaPad*%
%ADD48C,0.70000*%
%ADD49C,0.50000*%
%ADD50C,0.60000*%
%ADD51C,0.90000*%
D44*
X10916920Y5681980D02*
D03*
X7858760Y5671820D02*
D03*
X10909300Y8844280D02*
D03*
X7851140Y8862060D02*
D03*
D45*
X7774940Y5895340D02*
D03*
X10990580Y8613140D02*
D03*
D46*
X10279000Y8538500D02*
D03*
X9771000Y8436900D02*
D03*
Y8640100D02*
D03*
D48*
X10307017Y6379500D02*
D03*
X10492740Y6245860D02*
D03*
X10600000Y6200000D02*
D03*
X10875000Y6350000D02*
D03*
X10425000Y6914128D02*
D03*
X10248900Y6911214D02*
D03*
X10200640Y6670040D02*
D03*
X10203682Y6564046D02*
D03*
X10104120Y7909560D02*
D03*
X8343900Y7264400D02*
D03*
X9611360Y7912100D02*
D03*
X10022840Y8694420D02*
D03*
X9639300Y8869680D02*
D03*
X9916160Y8724900D02*
D03*
X8605520Y8041640D02*
D03*
X8191500Y7627620D02*
D03*
X9550400Y7780020D02*
D03*
X10835000Y7698740D02*
D03*
X10574020Y7696200D02*
D03*
X9507220Y6995160D02*
D03*
X9276080Y6845300D02*
D03*
X8999220Y6837680D02*
D03*
X8605520Y8255000D02*
D03*
X8760460Y8252460D02*
D03*
X7815580Y8577580D02*
D03*
X8056880Y8105140D02*
D03*
X7820660Y8374380D02*
D03*
X8864600Y6037580D02*
D03*
X7792720Y7274560D02*
D03*
X7787640Y7104380D02*
D03*
X8122920Y6786880D02*
D03*
X8303260Y8125460D02*
D03*
X9075000Y8525000D02*
D03*
X8700000D02*
D03*
D49*
X9195000Y7670000D02*
D03*
X9085000Y7560000D02*
D03*
X8865000Y7670000D02*
D03*
X8975000D02*
D03*
X9085000D02*
D03*
X8975000Y7560000D02*
D03*
X8865000D02*
D03*
X9195000D02*
D03*
Y7450000D02*
D03*
X9085000D02*
D03*
Y7340000D02*
D03*
X9195000D02*
D03*
Y7230000D02*
D03*
X9085000D02*
D03*
X8975000Y7450000D02*
D03*
X8865000Y7340000D02*
D03*
Y7450000D02*
D03*
X8975000Y7340000D02*
D03*
Y7230000D02*
D03*
X8865000D02*
D03*
X8307500Y8555000D02*
D03*
X8197500Y8445000D02*
D03*
X8307500D02*
D03*
X8197500Y8555000D02*
D03*
X8755000Y7670000D02*
D03*
Y7450000D02*
D03*
Y7340000D02*
D03*
Y7560000D02*
D03*
Y7230000D02*
D03*
D50*
X8325000Y7375000D02*
D03*
D51*
X8089900Y7734300D02*
D03*
%TF.MD5,caa05be7ceacca178fd93d68d37b7e01*%
M02*
