%TF.GenerationSoftware,Altium Limited,Altium Designer,26.7.1 (11)*%
G04 Layer_Physical_Order=3*
G04 Layer_Color=16440176*
G04 Board_Origin=0|0*
%FSLAX45Y45*%
%MOMM*%
%TF.SameCoordinates,06090C51-49DB-498D-9410-9DCDE6E54C52*%
%TF.FilePolarity,Positive*%
%TF.FileFunction,Copper,L3,Inr,Signal*%
%TF.Part,Single*%
G01*
G75*
%TA.AperFunction,ViaPad*%
%ADD44C,2.00000*%
%ADD45C,1.52400*%
%TA.AperFunction,ComponentPad*%
%ADD46C,1.06700*%
%TA.AperFunction,ViaPad*%
%ADD47C,0.80000*%
%ADD48C,0.70000*%
%ADD49C,0.50000*%
%ADD50C,0.60000*%
%ADD51C,0.90000*%
G36*
X11002545Y8972014D02*
Y8972015D01*
X11020234Y8954325D01*
X11048032Y8912724D01*
X11067179Y8866499D01*
X11076940Y8817426D01*
Y8698748D01*
X11051540Y8688227D01*
X11049648Y8690119D01*
X11027712Y8702784D01*
X11003245Y8709340D01*
X10977915D01*
X10953448Y8702784D01*
X10931512Y8690119D01*
X10913601Y8672208D01*
X10900936Y8650272D01*
X10894380Y8625805D01*
Y8600475D01*
X10900936Y8576008D01*
X10913601Y8554072D01*
X10931512Y8536161D01*
X10953448Y8523496D01*
X10977915Y8516940D01*
X11003245D01*
X11027712Y8523496D01*
X11049648Y8536161D01*
X11051540Y8538053D01*
X11076940Y8527532D01*
Y5621020D01*
X11072595Y5616675D01*
X11072595D01*
X11054905Y5598985D01*
X11031897Y5583612D01*
X11025353Y5584786D01*
X11019005Y5596814D01*
X11015308Y5612393D01*
X11028742Y5635662D01*
X11036920Y5666182D01*
Y5697778D01*
X11028742Y5728298D01*
X11012944Y5755662D01*
X10990602Y5778004D01*
X10963238Y5793802D01*
X10932718Y5801980D01*
X10901122D01*
X10870602Y5793802D01*
X10843238Y5778004D01*
X10820896Y5755662D01*
X10805098Y5728298D01*
X10796920Y5697778D01*
Y5666182D01*
X10805098Y5635662D01*
X10820896Y5608298D01*
X10843238Y5585956D01*
X10870602Y5570158D01*
X10879849Y5567680D01*
X10876505Y5542280D01*
X7925190D01*
X7918384Y5567680D01*
X7932442Y5575796D01*
X7954784Y5598138D01*
X7970582Y5625502D01*
X7978760Y5656022D01*
Y5687618D01*
X7970582Y5718138D01*
X7954784Y5745502D01*
X7932442Y5767844D01*
X7905078Y5783642D01*
X7874558Y5791820D01*
X7842962D01*
X7812442Y5783642D01*
X7785078Y5767844D01*
X7762736Y5745502D01*
X7746938Y5718138D01*
X7738760Y5687618D01*
Y5656022D01*
X7746938Y5625502D01*
X7762736Y5598138D01*
X7785078Y5575796D01*
X7799136Y5567680D01*
X7792330Y5542280D01*
X7752080D01*
X7735962Y5561004D01*
X7724126Y5578718D01*
X7712359Y5607126D01*
X7706360Y5637283D01*
Y5652658D01*
Y8844765D01*
X7731140Y8846261D01*
X7739318Y8815742D01*
X7755116Y8788378D01*
X7777458Y8766036D01*
X7804822Y8750238D01*
X7835342Y8742060D01*
X7866938D01*
X7897458Y8750238D01*
X7924822Y8766036D01*
X7947164Y8788378D01*
X7962962Y8815742D01*
X7971140Y8846262D01*
Y8877858D01*
X7962962Y8908378D01*
X7947164Y8935742D01*
X7939566Y8943340D01*
X7950087Y8968740D01*
X10834071D01*
X10840877Y8943340D01*
X10835618Y8940304D01*
X10813276Y8917962D01*
X10797478Y8890598D01*
X10789300Y8860078D01*
Y8828482D01*
X10797478Y8797962D01*
X10813276Y8770598D01*
X10835618Y8748256D01*
X10862982Y8732458D01*
X10893502Y8724280D01*
X10925098D01*
X10955618Y8732458D01*
X10982982Y8748256D01*
X11005324Y8770598D01*
X11021122Y8797962D01*
X11029300Y8828482D01*
Y8860078D01*
X11021122Y8890598D01*
X11005324Y8917962D01*
X10982982Y8940304D01*
X10977174Y8943657D01*
X10977952Y8971317D01*
X10993236Y8979399D01*
X11002545Y8972014D01*
D02*
G37*
%LPC*%
G36*
X10033780Y8749420D02*
X10011900D01*
X9991685Y8741047D01*
X9976213Y8725575D01*
X9967840Y8705360D01*
Y8683480D01*
X9976213Y8663265D01*
X9991685Y8647793D01*
X10011900Y8639420D01*
X10033780D01*
X10053995Y8647793D01*
X10069467Y8663265D01*
X10077840Y8683480D01*
Y8705360D01*
X10069467Y8725575D01*
X10053995Y8741047D01*
X10033780Y8749420D01*
D02*
G37*
G36*
X9780657Y8713450D02*
X9761343D01*
X9742688Y8708451D01*
X9725962Y8698794D01*
X9712305Y8685138D01*
X9702649Y8668412D01*
X9697650Y8649756D01*
Y8630443D01*
X9702649Y8611788D01*
X9712305Y8595062D01*
X9725962Y8581405D01*
X9742688Y8571749D01*
X9761343Y8566750D01*
X9780657D01*
X9799312Y8571749D01*
X9816038Y8581405D01*
X9829695Y8595062D01*
X9839351Y8611788D01*
X9844350Y8630443D01*
Y8649756D01*
X9839351Y8668412D01*
X9829695Y8685138D01*
X9816038Y8698794D01*
X9799312Y8708451D01*
X9780657Y8713450D01*
D02*
G37*
G36*
X9085940Y8580000D02*
X9064060D01*
X9043845Y8571626D01*
X9028373Y8556155D01*
X9020000Y8535940D01*
Y8514060D01*
X9028373Y8493845D01*
X9043845Y8478373D01*
X9064060Y8470000D01*
X9085940D01*
X9106155Y8478373D01*
X9121626Y8493845D01*
X9130000Y8514060D01*
Y8535940D01*
X9121626Y8556155D01*
X9106155Y8571626D01*
X9085940Y8580000D01*
D02*
G37*
G36*
X8710940D02*
X8689060D01*
X8668845Y8571626D01*
X8653374Y8556155D01*
X8645000Y8535940D01*
Y8514060D01*
X8653374Y8493845D01*
X8668845Y8478373D01*
X8689060Y8470000D01*
X8710940D01*
X8731155Y8478373D01*
X8746627Y8493845D01*
X8755000Y8514060D01*
Y8535940D01*
X8746627Y8556155D01*
X8731155Y8571626D01*
X8710940Y8580000D01*
D02*
G37*
G36*
X10288657Y8611850D02*
X10269343D01*
X10250688Y8606851D01*
X10233962Y8597194D01*
X10220305Y8583538D01*
X10210649Y8566812D01*
X10205650Y8548156D01*
Y8528843D01*
X10210649Y8510188D01*
X10220305Y8493462D01*
X10233962Y8479805D01*
X10250688Y8470149D01*
X10269343Y8465150D01*
X10288657D01*
X10307312Y8470149D01*
X10324038Y8479805D01*
X10337695Y8493462D01*
X10347351Y8510188D01*
X10352350Y8528843D01*
Y8548156D01*
X10347351Y8566812D01*
X10337695Y8583538D01*
X10324038Y8597194D01*
X10307312Y8606851D01*
X10288657Y8611850D01*
D02*
G37*
G36*
X9780657Y8510250D02*
X9761343D01*
X9742688Y8505251D01*
X9725962Y8495594D01*
X9712305Y8481938D01*
X9702649Y8465212D01*
X9697650Y8446556D01*
Y8427243D01*
X9702649Y8408588D01*
X9712305Y8391862D01*
X9725962Y8378205D01*
X9742688Y8368549D01*
X9761343Y8363550D01*
X9780657D01*
X9799312Y8368549D01*
X9816038Y8378205D01*
X9829695Y8391862D01*
X9839351Y8408588D01*
X9844350Y8427243D01*
Y8446556D01*
X9839351Y8465212D01*
X9829695Y8481938D01*
X9816038Y8495594D01*
X9799312Y8505251D01*
X9780657Y8510250D01*
D02*
G37*
G36*
X8314200Y8180460D02*
X8292320D01*
X8272105Y8172087D01*
X8256633Y8156615D01*
X8248260Y8136400D01*
Y8114520D01*
X8256633Y8094305D01*
X8272105Y8078833D01*
X8292320Y8070460D01*
X8314200D01*
X8334415Y8078833D01*
X8349887Y8094305D01*
X8358260Y8114520D01*
Y8136400D01*
X8349887Y8156615D01*
X8334415Y8172087D01*
X8314200Y8180460D01*
D02*
G37*
G36*
X9622300Y7967100D02*
X9600420D01*
X9580205Y7958727D01*
X9564733Y7943255D01*
X9556360Y7923040D01*
Y7901160D01*
X9564733Y7880945D01*
X9580205Y7865473D01*
X9600420Y7857100D01*
X9622300D01*
X9642515Y7865473D01*
X9657987Y7880945D01*
X9666360Y7901160D01*
Y7923040D01*
X9657987Y7943255D01*
X9642515Y7958727D01*
X9622300Y7967100D01*
D02*
G37*
G36*
X10115060Y7964560D02*
X10093180D01*
X10072965Y7956187D01*
X10057493Y7940715D01*
X10049120Y7920500D01*
Y7898620D01*
X10057493Y7878405D01*
X10072965Y7862933D01*
X10093180Y7854560D01*
X10115060D01*
X10135275Y7862933D01*
X10150747Y7878405D01*
X10159120Y7898620D01*
Y7920500D01*
X10150747Y7940715D01*
X10135275Y7956187D01*
X10115060Y7964560D01*
D02*
G37*
G36*
X8098458Y7799300D02*
X8081342D01*
X8064811Y7794870D01*
X8049989Y7786313D01*
X8037887Y7774211D01*
X8029330Y7759389D01*
X8024900Y7742858D01*
Y7725742D01*
X8029330Y7709211D01*
X8037887Y7694389D01*
X8049989Y7682287D01*
X8064811Y7673730D01*
X8081342Y7669300D01*
X8098458D01*
X8114989Y7673730D01*
X8129811Y7682287D01*
X8141913Y7694389D01*
X8150470Y7709211D01*
X8154900Y7725742D01*
Y7742858D01*
X8150470Y7759389D01*
X8141913Y7774211D01*
X8129811Y7786313D01*
X8114989Y7794870D01*
X8098458Y7799300D01*
D02*
G37*
G36*
X8334946Y7425000D02*
X8315054D01*
X8296677Y7417388D01*
X8282612Y7403323D01*
X8275000Y7384946D01*
Y7365054D01*
X8282612Y7346677D01*
X8296677Y7332612D01*
X8315054Y7325000D01*
X8334946D01*
X8353323Y7332612D01*
X8367388Y7346677D01*
X8375000Y7365054D01*
Y7384946D01*
X8367388Y7403323D01*
X8353323Y7417388D01*
X8334946Y7425000D01*
D02*
G37*
%LPD*%
D44*
X10916920Y5681980D02*
D03*
X7858760Y5671820D02*
D03*
X10909300Y8844280D02*
D03*
X7851140Y8862060D02*
D03*
D45*
X7774940Y5895340D02*
D03*
X10990580Y8613140D02*
D03*
D46*
X10279000Y8538500D02*
D03*
X9771000Y8436900D02*
D03*
Y8640100D02*
D03*
D47*
X10800006Y8400005D02*
D03*
X10900006Y8200004D02*
D03*
X10800006Y8000004D02*
D03*
X10900006Y7000004D02*
D03*
X10800006Y6800004D02*
D03*
X10900006Y6600004D02*
D03*
X10700006Y8600005D02*
D03*
Y8200004D02*
D03*
X10600006Y8000004D02*
D03*
Y7200004D02*
D03*
X10700006Y7000004D02*
D03*
X10600006Y6800004D02*
D03*
X10700006Y6600004D02*
D03*
X10400006Y8800005D02*
D03*
Y8400005D02*
D03*
Y8000004D02*
D03*
X10500006Y7800004D02*
D03*
X10400006Y6800004D02*
D03*
X10300006Y7800004D02*
D03*
X10000005Y8000004D02*
D03*
X10100005Y7400004D02*
D03*
X10000005Y7200004D02*
D03*
X9900005Y7800004D02*
D03*
Y7400004D02*
D03*
X9800005Y7200004D02*
D03*
X9900005Y7000004D02*
D03*
X9800005Y6800004D02*
D03*
X9900005Y6200003D02*
D03*
X9800005Y6000003D02*
D03*
X9700005Y8200004D02*
D03*
Y7400004D02*
D03*
Y7000004D02*
D03*
X9600005Y6800004D02*
D03*
X9700005Y6600004D02*
D03*
X9600005Y6400003D02*
D03*
X9700005Y6200003D02*
D03*
X9600005Y6000003D02*
D03*
X9400005Y8800005D02*
D03*
X9500005Y8600005D02*
D03*
X9400005Y8400005D02*
D03*
X9500005Y7400004D02*
D03*
Y6600004D02*
D03*
Y6200003D02*
D03*
X9300005Y8600005D02*
D03*
Y8200004D02*
D03*
X9200005Y6400003D02*
D03*
Y6000003D02*
D03*
X9000005Y8800005D02*
D03*
X9100005Y6600004D02*
D03*
X9000005Y6400003D02*
D03*
X9100005Y6200003D02*
D03*
X8800005Y8800005D02*
D03*
X8900005Y6600004D02*
D03*
Y5800003D02*
D03*
X8600005Y8800005D02*
D03*
Y6000003D02*
D03*
X8700005Y5800003D02*
D03*
X8400005Y6000003D02*
D03*
X8500005Y5800003D02*
D03*
X8200004Y8800005D02*
D03*
X8300004Y6600004D02*
D03*
X8000004Y7600004D02*
D03*
Y6800004D02*
D03*
Y6400003D02*
D03*
X8100004Y6200003D02*
D03*
X7900004Y7400004D02*
D03*
X7800004Y6400003D02*
D03*
X7900004Y6200003D02*
D03*
D48*
X10307017Y6379500D02*
D03*
X10492740Y6245860D02*
D03*
X10600000Y6200000D02*
D03*
X10875000Y6350000D02*
D03*
X10425000Y6914128D02*
D03*
X10248900Y6911214D02*
D03*
X10200640Y6670040D02*
D03*
X10203682Y6564046D02*
D03*
X10104120Y7909560D02*
D03*
X8343900Y7264400D02*
D03*
X9611360Y7912100D02*
D03*
X10022840Y8694420D02*
D03*
X9639300Y8869680D02*
D03*
X9916160Y8724900D02*
D03*
X8605520Y8041640D02*
D03*
X8191500Y7627620D02*
D03*
X9550400Y7780020D02*
D03*
X10835000Y7698740D02*
D03*
X10574020Y7696200D02*
D03*
X9507220Y6995160D02*
D03*
X9276080Y6845300D02*
D03*
X8999220Y6837680D02*
D03*
X8605520Y8255000D02*
D03*
X8760460Y8252460D02*
D03*
X7815580Y8577580D02*
D03*
X8056880Y8105140D02*
D03*
X7820660Y8374380D02*
D03*
X8864600Y6037580D02*
D03*
X7792720Y7274560D02*
D03*
X7787640Y7104380D02*
D03*
X8122920Y6786880D02*
D03*
X8303260Y8125460D02*
D03*
X9075000Y8525000D02*
D03*
X8700000D02*
D03*
D49*
X9195000Y7670000D02*
D03*
X9085000Y7560000D02*
D03*
X8865000Y7670000D02*
D03*
X8975000D02*
D03*
X9085000D02*
D03*
X8975000Y7560000D02*
D03*
X8865000D02*
D03*
X9195000D02*
D03*
Y7450000D02*
D03*
X9085000D02*
D03*
Y7340000D02*
D03*
X9195000D02*
D03*
Y7230000D02*
D03*
X9085000D02*
D03*
X8975000Y7450000D02*
D03*
X8865000Y7340000D02*
D03*
Y7450000D02*
D03*
X8975000Y7340000D02*
D03*
Y7230000D02*
D03*
X8865000D02*
D03*
X8307500Y8555000D02*
D03*
X8197500Y8445000D02*
D03*
X8307500D02*
D03*
X8197500Y8555000D02*
D03*
X8755000Y7670000D02*
D03*
Y7450000D02*
D03*
Y7340000D02*
D03*
Y7560000D02*
D03*
Y7230000D02*
D03*
D50*
X8325000Y7375000D02*
D03*
D51*
X8089900Y7734300D02*
D03*
%TF.MD5,17aeedc20505a586069c5adc09ec6b43*%
M02*
